<?xml version="1.0" encoding="UTF-8"?>
<svg height="128px" viewBox="0 0 128 128" width="128px" xmlns="http://www.w3.org/2000/svg" xmlns:xlink="http://www.w3.org/1999/xlink">
    <linearGradient id="a" gradientUnits="userSpaceOnUse" x1="29.999998" x2="124.999998" y1="40.000008" y2="85.000008">
        <stop offset="0" stop-color="#e44e24"/>
        <stop offset="0.736842" stop-color="#634176"/>
        <stop offset="1" stop-color="#2385bf"/>
    </linearGradient>
    <linearGradient id="b" gradientUnits="userSpaceOnUse" x1="29.999998" x2="94.999998" y1="65.000008" y2="65.000008">
        <stop offset="0" stop-color="#bc433b"/>
        <stop offset="1" stop-color="#4f3881"/>
    </linearGradient>
    <path d="m 40.089844 0 h 47.820312 c 22.140625 0 40.089844 17.949219 40.089844 40.089844 v 47.820312 c 0 22.140625 -17.949219 40.089844 -40.089844 40.089844 h -47.820312 c -22.140625 0 -40.089844 -17.949219 -40.089844 -40.089844 v -47.820312 c 0 -22.140625 17.949219 -40.089844 40.089844 -40.089844 z m 0 0" fill="#ffffff"/>
    <path d="m 4.375 74.15625 l -0.875 -0.230469 v -2.710937 c 0 -3.015625 0.027344 -3.046875 1.765625 -1.910156 c 2.824219 1.851562 3.617187 -0.558594 1.1875 -3.609376 c -2.273437 -2.855468 -2.953125 -4.398437 -2.953125 -6.71875 v -2.078124 l 3.398438 -3.398438 h 2.011718 c 1.105469 0 2.363282 0.136719 2.800782 0.304688 l 0.789062 0.300781 v 2.699219 c 0 2.757812 -0.398438 3.273437 -1.5 1.945312 c -0.34375 -0.414062 -1.042969 -0.75 -1.5625 -0.75 h -0.9375 v 1.171875 c 0 0.644531 0.472656 1.601563 1.050781 2.125 s 1.621094 1.917969 2.3125 3.101563 l 1.257813 2.148437 l -0.246094 2.570313 l -0.246094 2.574218 l -1.574218 1.402344 l -1.570313 1.40625 l -2.117187 -0.058594 c -1.164063 -0.03125 -2.511719 -0.160156 -2.992188 -0.285156 z m 15.570312 -0.03125 c -0.027343 -0.207031 -0.007812 -3.9375 0.046876 -8.292969 l 0.101562 -7.914062 l -2.171875 0.140625 l -2.171875 0.144531 l 0.121094 -1.226563 c 0.066406 -0.675781 0.242187 -1.734374 0.386718 -2.351562 l 0.261719 -1.125 h 12.609375 l -0.332031 2.078125 c -0.449219 2.804687 -0.527344 2.878906 -2.59375 2.410156 l -1.800781 -0.40625 l 0.171875 8.460938 l 0.175781 8.457031 h -2.375 c -1.304688 0 -2.398438 -0.167969 -2.429688 -0.375 z m 10.867188 -0.023438 c -0.136719 -0.21875 0.199219 -1.738281 0.746094 -3.375 c 0.546875 -1.636718 1.972656 -6.125 3.171875 -9.976562 l 2.183593 -7 h 3.75 l 3.160157 9.75 c 1.738281 5.363281 3.164062 10.042969 3.167969 10.402344 l 0.007812 0.652344 l -4.671875 -0.304688 l -1.578125 -5 l -2.082031 -0.152344 l -2.085938 -0.152344 l -1.242187 5.554688 h -2.140625 c -1.175781 0 -2.25 -0.179688 -2.386719 -0.398438 z m 8.652344 -9.976562 c -0.035156 -0.832031 -0.855469 -3.152344 -0.929688 -2.621094 c -0.019531 0.140625 -0.246094 0.984375 -0.5 1.875 l -0.464844 1.621094 h 1.929688 z m 11.035156 0.375 c 0 -5.5 -0.003906 -10.167969 -0.003906 -10.375 c -0.003906 -0.207031 1.441406 -0.441406 3.210937 -0.523438 l 3.21875 -0.144531 l 3.609375 1.507813 l 0.785156 1.875 l 0.78125 1.875 l -0.261718 1.96875 l -0.265625 1.96875 l -2.507813 2.507812 l 1.273438 2.546875 c 0.699218 1.398438 1.820312 3.277344 2.492187 4.171875 c 1.492188 1.988282 1.1875 2.621094 -1.273437 2.621094 h -1.882813 l -1.03125 -1.125 c -0.566406 -0.617188 -1.511719 -2.082031 -2.097656 -3.25 c -1.460937 -2.90625 -1.742187 -2.675781 -1.386719 1.125 l 0.300782 3.25 h -4.960938 z m 6.480469 -3.464844 c 0.542969 -1.015625 0.210937 -2.535156 -0.695313 -3.152344 c -1.039062 -0.714843 -1.285156 -0.359374 -1.285156 1.867188 v 2.25 h 0.730469 c 0.40625 0 0.964843 -0.433594 1.25 -0.964844 z m 10.492187 13.359375 c -0.011718 -0.078125 -0.070312 -4.8125 -0.125 -10.519531 l -0.097656 -10.375 h 4.75 v 16.5 l 0.625 -0.023438 c 0.34375 -0.011718 1.46875 -0.320312 2.5 -0.691406 l 1.875 -0.667968 l -0.007812 0.566406 c -0.003907 0.3125 -0.308594 1.578125 -0.679688 2.816406 l -0.671875 2.25 l -4.070313 0.144531 c -2.238281 0.082031 -4.082031 0.082031 -4.097656 0 z m 13.550782 -10.394531 l 0.019531 -10.5 h 4.957031 v 21 h -5 z m 10.511718 1.902344 l 0.105469 -8.652344 l -1.121094 -1.875 l -1.117187 -1.875 h 6.089844 l 2.753906 5.375 l 2.757812 5.375 l -0.515625 -10.75 h 5.011719 v 21 h -4.535156 l -2.226563 -4.578125 c -1.226562 -2.519531 -2.367187 -4.710937 -2.535156 -4.875 s -0.226563 1.839844 -0.128906 4.453125 l 0.175781 4.75 l -2.410156 0.152344 l -2.410156 0.15625 z m 19.425782 8.472656 c -0.019532 -0.070312 -0.074219 -4.792969 -0.125 -10.5 l -0.085938 -10.375 h 5.234375 l -0.59375 6.25 l 0.722656 -1 c 0.398438 -0.550781 1.25 -1.957031 1.898438 -3.125 l 1.171875 -2.125 h 2.660156 c 2.722656 0 3.230469 0.402344 1.902344 1.503906 c -0.417969 0.34375 -1.785156 2.277344 -3.042969 4.292969 l -2.285156 3.664063 l 2.789062 4.738281 c 1.535157 2.609375 3.015625 4.878906 3.292969 5.050781 c 0.273438 0.167969 0.5 0.519531 0.5 0.78125 v 0.46875 h -3 c -1.648438 0 -3.003906 -0.167969 -3.007812 -0.375 c 0 -0.207031 -0.800782 -1.726562 -1.777344 -3.375 l -1.773438 -3 l 0.4375 6.664062 l -1.066406 0.285157 c -1.066406 0.289062 -3.78125 0.410156 -3.851562 0.175781 z m 0 0" fill="url(#a)"/>
    <path d="m 71.25 119.695312 c -5.894531 -0.984374 -8.425781 -1.609374 -14.25 -3.519531 c -7.085938 -2.324219 -16.023438 -6.785156 -23.265625 -11.605469 c -7.695313 -5.128906 -11.8125 -8.449218 -17.933594 -14.460937 c -4.414062 -4.335937 -10.800781 -11.703125 -10.800781 -12.460937 c 0 -0.15625 2.644531 2.277343 5.878906 5.40625 c 10.242188 9.917968 21.082032 18.007812 31.621094 23.597656 c 6.398438 3.394531 11.800781 5.511718 17.75 6.96875 c 3.402344 0.832031 6.023438 1.101562 10.75 1.105468 c 4.804688 0.003907 6.886719 -0.210937 9 -0.929687 c 6.460938 -2.195313 11.242188 -5.601563 14.710938 -10.472656 c 4.320312 -6.074219 6.886718 -12.539063 8.5625 -21.578125 c 0.511718 -2.75 1.164062 -5.160156 1.453124 -5.363282 c 0.289063 -0.203124 4.886719 -0.371093 10.21875 -0.375 l 9.695313 -0.007812 l -0.3125 3 c -0.390625 3.738281 -2.460937 11.183594 -4.328125 15.574219 c -2.878906 6.769531 -9.113281 14.625 -14.5 18.269531 c -2.96875 2.007812 -7.648438 4.324219 -10.75 5.320312 c -3.738281 1.195313 -11.761719 2.34375 -15.871094 2.269532 c -1.996094 -0.035156 -5.429687 -0.367188 -7.628906 -0.738282 z m -67.25 -69.199218 c 0 -1.800782 1.9375 -9.765625 3.296875 -13.550782 c 1.953125 -5.433593 3.78125 -8.824218 7.230469 -13.402343 c 3.230468 -4.285157 7.84375 -8.328125 12.472656 -10.925781 c 6.339844 -3.5625 16.121094 -5.503907 24.992188 -4.964844 c 5.929687 0.363281 13.472656 1.859375 19.632812 3.894531 c 10.113281 3.347656 22.136719 10.125 32.375 18.253906 c 6.5 5.164063 20.175781 19.191407 19.429688 19.9375 c -0.117188 0.113281 -1.890626 -1.421875 -3.945313 -3.410156 c -11.507813 -11.160156 -21.574219 -18.792969 -32.703125 -24.8125 c -6.480469 -3.503906 -11.070312 -5.332031 -17.691406 -7.046875 c -4.386719 -1.140625 -6.757813 -1.46875 -10.554688 -1.46875 c -2.695312 0 -6.109375 0.222656 -7.59375 0.496094 c -1.480468 0.273437 -4.578125 1.425781 -6.882812 2.558594 c -7.539063 3.707031 -12.925782 10.585937 -16.347656 20.890624 c -0.878907 2.644532 -1.988282 7 -2.464844 9.679688 l -0.863282 4.875 h -10.191406 c -9.875 0 -10.191406 -0.03125 -10.191406 -1.003906 z m 0 0" fill="url(#b)"/>
</svg>
