<?xml version="1.0" encoding="UTF-8"?>
<svg height="128px" viewBox="0 0 128 128" width="128px" xmlns="http://www.w3.org/2000/svg" xmlns:xlink="http://www.w3.org/1999/xlink">
    <linearGradient id="a" gradientUnits="userSpaceOnUse" x1="30" x2="95" y1="65" y2="65">
        <stop offset="0" stop-color="#bc433b"/>
        <stop offset="1" stop-color="#4f3881"/>
    </linearGradient>
    <path d="m 40.089844 0 h 47.820312 c 22.140625 0 40.089844 17.949219 40.089844 40.089844 v 47.820312 c 0 22.140625 -17.949219 40.089844 -40.089844 40.089844 h -47.820312 c -22.140625 0 -40.089844 -17.949219 -40.089844 -40.089844 v -47.820312 c 0 -22.140625 17.949219 -40.089844 40.089844 -40.089844 z m 0 0" fill="#ffffff"/>
    <path d="m 71.25 119.695312 c -5.894531 -0.984374 -8.425781 -1.609374 -14.25 -3.519531 c -7.085938 -2.324219 -16.023438 -6.785156 -23.265625 -11.605469 c -7.695313 -5.128906 -11.8125 -8.449218 -17.933594 -14.460937 c -4.414062 -4.335937 -10.800781 -11.703125 -10.800781 -12.460937 c 0 -0.15625 2.644531 2.277343 5.878906 5.40625 c 10.242188 9.917968 19.425782 14.363281 29.964844 19.953124 c 6.398438 3.394532 9.148438 3.855469 15.097656 5.308594 c 3.40625 0.832032 9.34375 2.019532 14.058594 1.683594 c 4.863281 -0.347656 7.050781 -1.753906 9.007812 -2.828125 c 4 -2.199219 9.914063 -3.945313 13.382813 -8.820313 c 4.324219 -6.070312 4.238281 -8.230468 5.914063 -17.269531 c 0.507812 -2.746093 0.167968 -15.429687 0.457031 -15.632812 c 0.289062 -0.203125 16.226562 0.0625 17.179687 0.011719 l 9.058594 -0.460938 l -0.671875 14 c -0.179687 3.753906 -2.460937 11.183594 -4.328125 15.574219 c -2.878906 6.769531 -9.113281 14.625 -14.5 18.269531 c -2.96875 2.007812 -7.648438 4.324219 -10.75 5.320312 c -3.738281 1.195313 -11.761719 2.34375 -15.871094 2.269532 c -1.996094 -0.035156 -5.429687 -0.367188 -7.628906 -0.738282 z m -67.679688 -59.535156 c 0 -1.800781 2.367188 -19.429687 3.726563 -23.214844 c 1.953125 -5.433593 3.78125 -8.824218 7.230469 -13.402343 c 3.230468 -4.285157 7.84375 -8.328125 12.472656 -10.925781 c 6.339844 -3.5625 16.121094 -5.503907 24.992188 -4.964844 c 5.929687 0.363281 13.472656 1.859375 19.632812 3.894531 c 10.113281 3.347656 22.136719 10.125 32.375 18.253906 c 6.5 5.164063 20.175781 19.191407 19.429688 19.9375 c -0.117188 0.113281 -1.890626 -1.421875 -3.945313 -3.410156 c -11.507813 -11.160156 -22.324219 -16.199219 -33.457031 -22.21875 c -6.476563 -3.503906 -8.652344 -3.945313 -15.398438 -5.082031 c -3.816406 -0.640625 -5.882812 -0.273438 -9.609375 -0.007813 c -2.992187 0.210938 -5.207031 0.691407 -6.597656 1.269531 c -1.363281 0.566407 -6.320313 3.117188 -7.773437 4.03125 c -4.390626 2.761719 -8.308594 3.398438 -12.3125 12.957032 c -1.074219 2.566406 -2.054688 7.648437 -2.460938 10.339844 l -1.875 12.382812 l -15.476562 0.445312 c -9.871094 0.285157 -10.953126 0.6875 -10.953126 -0.285156 z m 0 0" fill="url(#a)"/>
</svg>
